<?xml version="1.0" encoding="UTF-8"?><svg id="a" xmlns="http://www.w3.org/2000/svg" viewBox="0 0 960 540"><path d="M52.39,495.41l9.02-5.21v-3.74l-15.49,8.94,15.49,8.94v-3.74l-9.02-5.2ZM72.55,494.07l-5.21-9.01h-3.74l8.94,15.49,8.94-15.49h-3.74l-5.21,9.01ZM83.9,493.93h-3.74l-6.74,11.83h3.74l6.74-11.83ZM95.12,495.41l-9.01-5.2v-3.74l15.49,8.94-15.49,8.94v-3.74l9.01-5.21Z" fill="#00a4ed" stroke-width="0"/><path d="M41.12,512.78l-3.02,9.92h-2.18l-2.87-9.92h2.09l1.12,4.38c.3,1.17.59,2.36.8,3.56h.04l.83-3.56,1.15-4.38h2.05,0ZM46.97,514.66c-.35-.18-.95-.43-1.77-.43-1.01,0-1.46.54-1.46,1.1,0,.71.49,1.03,1.7,1.59,1.59.71,2.3,1.63,2.3,2.93,0,1.73-1.3,2.99-3.61,2.99-.98,0-1.97-.27-2.44-.55l.37-1.6c.52.31,1.34.56,2.14.56,1.06,0,1.61-.5,1.61-1.24s-.48-1.13-1.57-1.61c-1.5-.64-2.43-1.57-2.43-2.86,0-1.63,1.28-2.88,3.42-2.88.94,0,1.66.22,2.13.45l-.4,1.56h0ZM55.53,522.46c-.37.18-1.17.37-2.19.37-2.98,0-4.63-2.02-4.63-4.96,0-3.47,2.23-5.22,4.86-5.22,1.07,0,1.77.22,2.05.37l-.37,1.55c-.39-.17-.9-.32-1.59-.32-1.64,0-2.95,1.12-2.95,3.52,0,2.24,1.15,3.44,2.94,3.44.59,0,1.22-.12,1.61-.28l.27,1.54h0ZM59.78,516.77c-1.06,0-1.43,1.24-1.43,2.33,0,1.28.49,2.33,1.42,2.33s1.39-1.07,1.39-2.35c0-1.12-.4-2.32-1.38-2.32M63.09,519.05c0,2.73-1.76,3.79-3.35,3.79-1.93,0-3.33-1.37-3.33-3.7s1.46-3.78,3.4-3.78,3.28,1.51,3.28,3.69M68.73,518.45c0-1.05-.63-1.56-1.27-1.56-.98,0-1.47,1.01-1.47,2.26s.54,2.17,1.44,2.17c.57,0,1.29-.41,1.29-1.55v-1.32ZM70.64,520.65c0,.72.02,1.52.05,2.05h-1.68l-.09-1.02h-.04c-.37.71-1.15,1.16-2.02,1.16-1.62,0-2.79-1.5-2.79-3.68,0-2.45,1.35-3.79,2.9-3.79.84,0,1.44.35,1.73.84h.02v-3.88h1.91v8.32s0,0,0,0ZM76.38,518.36c.01-.75-.28-1.66-1.23-1.66s-1.3.95-1.35,1.66h2.58ZM77.79,522.42c-.59.26-1.43.41-2.32.41-2.22,0-3.48-1.39-3.48-3.62,0-2.06,1.19-3.84,3.29-3.84,1.74,0,2.87,1.24,2.87,3.56,0,.28-.01.55-.05.76h-4.29c.05,1.23.93,1.72,1.96,1.72.71,0,1.27-.13,1.76-.3l.27,1.32h0ZM85.91,522.46c-.37.18-1.17.37-2.19.37-2.98,0-4.63-2.02-4.63-4.96,0-3.47,2.23-5.22,4.86-5.22,1.07,0,1.77.22,2.05.37l-.37,1.55c-.39-.17-.9-.32-1.59-.32-1.64,0-2.95,1.12-2.95,3.52,0,2.24,1.15,3.44,2.94,3.44.59,0,1.22-.12,1.61-.28l.27,1.54ZM90.15,516.77c-1.06,0-1.43,1.24-1.43,2.33,0,1.28.49,2.33,1.42,2.33s1.39-1.07,1.39-2.35c0-1.12-.4-2.32-1.38-2.32M93.47,519.05c0,2.73-1.76,3.79-3.35,3.79-1.94,0-3.33-1.37-3.33-3.7s1.46-3.78,3.4-3.78,3.28,1.51,3.28,3.69M100.98,522.7h-1.91v-4.19c0-.88-.28-1.57-1.1-1.57-.52,0-1.22.4-1.22,1.5v4.27h-1.91v-5.02c0-.84-.02-1.52-.05-2.15h1.65l.09.97h.04c.32-.53,1.03-1.12,2.07-1.12,1.32,0,2.33.92,2.33,2.93v4.4h0ZM106.3,519.31c0,2.73-1.32,3.53-3.16,3.53-.45,0-1.01-.08-1.34-.19l.21-1.56c.24.08.58.14.95.14.86,0,1.43-.39,1.43-1.94v-6.51h1.91v6.53h0ZM110.02,517.49c.18.04.39.05.67.05,1.19,0,1.88-.67,1.88-1.74s-.67-1.61-1.73-1.61c-.39,0-.66.04-.83.08v3.22ZM108.13,512.91c.62-.12,1.47-.21,2.57-.21,1.25,0,2.19.24,2.82.79.59.5.95,1.3.95,2.22,0,2.72-2.27,3.33-3.75,3.33l-.7-.05v3.71h-1.9v-9.79h0Z" fill="#fff" stroke-width="0"/><path d="M812.84,501.97h2.8l-6.12,7,7.2,9.52h-5.64l-4.42-5.77-5.05,5.77h-2.8l6.55-7.48-6.91-9.03h5.78l3.99,5.28,4.62-5.28ZM811.86,516.81h1.55l-10.02-13.25h-1.67l10.14,13.25Z" fill="#fff" stroke-width="0"/><text transform="translate(822.27 516.81)" fill="#fff" font-family="Inter-Bold, Inter, sans-serif" font-size="18" font-variation-settings="&apos;wght&apos; 700, &apos;slnt&apos; 0" font-weight="700"><tspan x="0" y="0">#vscodejp</tspan></text></svg>
